# xmcd
#
# Track frame offsets: 
#        150
#        19634
#        38791
#        59635
#        84702
#        104477
#        135113
#        151895
#        174567
#        196914
#        218415
#        239534
#
# Disc length: 3492 seconds
#
# Revision: 0
# Processed by: cddbd v1.5.2PL0 Copyright (c) Steve Scherf et al.
# Submitted via: ExactAudioCopy v0.95b3
#
DISCID=980da20c
DTITLE=Atlanta Rhythm Section - With All Due Respect
DYEAR=2011
DGENRE=Blues
TTITLE0=Sleep With One Eye Open
TTITLE1=Bad Case Of Lovin You
TTITLE2=Midnight Rider
TTITLE3=Hey Nineteen
TTITLE4=Conversation
TTITLE5=Tuesday's Gone
TTITLE6=Rock Bottom
TTITLE7=So Into You
TTITLE8=Spooky
TTITLE9=Champagne Jam
TTITLE10=I'm Not Gonna Let It Bother Me Tonight
TTITLE11=Imaginary Lover
EXTD=
EXTT0=
EXTT1=
EXTT2=
EXTT3=
EXTT4=
EXTT5=
EXTT6=
EXTT7=
EXTT8=
EXTT9=
EXTT10=
EXTT11=
PLAYORDER=
